<svg
  height="512pt"
  viewBox="0 -66 512.00008 512"
  width="512pt"
  xmlns="http://www.w3.org/2000/svg"
  fill="#c2c2c2"
>
  <path fill="#c2c2c2"
    d="m508.535156 153.746094c-6.78125-28.203125-22.699218-52.574219-44.832031-68.628906-20.882813-15.152344-45.003906-21.296876-68.507813-17.574219-42.691406-42.992188-104.765624-67.542969-171.261718-67.542969-59.496094 0-115.507813 19.558594-157.710938 55.070312-42.703125 35.929688-66.222656 83.847657-66.222656 134.929688s23.519531 99 66.222656 134.929688c42.203125 35.511718 98.214844 55.070312 157.710938 55.070312 80.3125 0 154.03125-36.265625 194.011718-95.027344 7.382813.246094 14.804688-.46875 22.003907-2.121094.128906-.027343.257812-.050781.386719-.082031 22.800781-5.332031 42.519531-19.882812 55.523437-40.972656 15.476563-25.09375 20.09375-57.1875 12.675781-88.050781zm-29.699218 77.554687c-10.1875 16.519531-25.472657 27.878907-43.058594 31.992188-6.941406 1.625-14.128906 2.085937-21.222656 1.414062-7.878907-.742187-15.742188-2.863281-23.351563-6.367187-5.019531-2.316406-10.957031-.121094-13.269531 4.894531s-.117188 10.957031 4.898437 13.269531c4.273438 1.96875 8.621094 3.589844 13.011719 4.882813-37.351562 48.8125-101.769531 78.613281-171.910156 78.613281-112.449219 0-203.933594-76.261719-203.933594-170s91.484375-170 203.933594-170c57.183594 0 110.648437 19.570312 149.199218 54.15625-11.183593 5.085938-21.285156 12.585938-29.742187 22.171875-3.65625 4.140625-3.261719 10.457031.878906 14.113281 1.902344 1.679688 4.261719 2.503906 6.613281 2.503906 2.769532 0 5.523438-1.144531 7.5-3.382812 9.542969-10.8125 21.707032-18.191406 35.179688-21.339844.0625-.015625.121094-.039062.183594-.054687.078125-.015625.15625-.019531.234375-.035157 40.890625-9.285156 83.558593 22.242188 95.105469 70.285157 6.1875 25.722656 2.449218 52.289062-10.25 72.882812zm0 0"
  />
  <path fill="#c2c2c2"
    d="m94.484375 104.199219c-4.070313 3.738281-4.339844 10.0625-.609375 14.128906 1.980469 2.152344 4.671875 3.242187 7.367188 3.242187 2.421874 0 4.84375-.871093 6.761718-2.632812 4.070313-3.738281 4.339844-10.058594.609375-14.128906-3.738281-4.070313-10.058593-4.339844-14.128906-.609375zm0 0"
  />
  <path fill="#c2c2c2"
    d="m267.960938 83.777344c.761718.183594 1.519531.261718 2.269531.261718 4.542969 0 8.664062-3.117187 9.730469-7.738281 1.25-5.378906-2.097657-10.761719-7.480469-12-5.386719-1.25-10.757813 2.097657-12 7.476563-1.25 5.382812 2.101562 10.75 7.480469 12zm0 0"
  />
  <path fill="#c2c2c2"
    d="m71.453125 151.429688c-5.230469-1.757813-10.898437 1.0625-12.660156 6.300781-1.761719 5.230469 1.058593 10.910156 6.300781 12.660156 1.050781.359375 2.128906.519531 3.179688.519531 4.179687 0 8.078124-2.640625 9.480468-6.820312v.011718c1.757813-5.242187-1.0625-10.914062-6.300781-12.671874zm0 0"
  />
  <path fill="#c2c2c2"
    d="m220.660156 67.761719c-.289062-5.523438-5-9.75-10.519531-9.460938-5.511719.289063-9.75 5-9.453125 10.519531.28125 5.328126 4.699219 9.472657 9.980469 9.472657.179687 0 .359375-.011719.539062-.023438 5.511719-.289062 9.742188-5 9.453125-10.507812zm0 0"
  />
  <path fill="#c2c2c2"
    d="m64.011719 210.328125c-5.320313 1.480469-8.429688 7-6.9375 12.320313-.011719 0-.011719 0-.011719 0 1.242188 4.421874 5.261719 7.320312 9.628906 7.320312.890625 0 1.792969-.121094 2.691406-.371094 5.320313-1.488281 8.429688-7 6.949219-12.320312-1.480469-5.316406-7-8.425782-12.320312-6.949219zm0 0"
  />
  <path fill="#c2c2c2"
    d="m90.273438 263.6875c-3.890626 3.921875-3.871094 10.25.0625 14.140625 1.949218 1.941406 4.488281 2.902344 7.039062 2.902344 2.570312 0 5.140625-.980469 7.097656-2.953125 3.890625-3.929688 3.863282-10.257813-.058594-14.148438-3.921874-3.890625-10.25-3.859375-14.140624.058594zm0 0"
  />
  <path fill="#c2c2c2"
    d="m151.097656 294.230469c-5.101562-2.140625-10.960937.257812-13.089844 5.359375-2.140624 5.089844.257813 10.949218 5.359376 13.089844 1.261718.53125 2.570312.78125 3.859374.78125 3.910157 0 7.621094-2.3125 9.230469-6.144532 2.128907-5.085937-.269531-10.957031-5.359375-13.085937zm0 0"
  />
  <path fill="#c2c2c2"
    d="m152.195312 90.558594c1.191407 0 2.402344-.21875 3.582032-.667969 5.160156-1.980469 7.730468-7.769531 5.75-12.921875-1.980469-5.160156-7.761719-7.726562-12.921875-5.75-5.160157 1.980469-7.730469 7.761719-5.75 12.921875 1.53125 3.980469 5.320312 6.417969 9.339843 6.417969zm0 0"
  />
  <path fill="#c2c2c2"
    d="m315.773438 281.789062c-26.484376 16.902344-59.960938 26.210938-94.261719 26.210938-5.523438 0-10 4.476562-10 10s4.476562 10 10 10c38.617187 0 74.933593-10.148438 105.023437-29.351562 4.65625-2.972657 6.019532-9.15625 3.050782-13.8125-2.972657-4.652344-9.15625-6.019532-13.8125-3.046876zm0 0"
  />
  <path fill="#c2c2c2"
    d="m203.007812 187c0 5.523438-4.476562 10-10 10-5.523437 0-10-4.476562-10-10s4.476563-10 10-10c5.523438 0 10 4.476562 10 10zm0 0"
  />
  <path fill="#c2c2c2"
    d="m134.007812 207c0 5.523438-4.480468 10-10 10-5.523437 0-10-4.476562-10-10s4.476563-10 10-10c5.519532 0 10 4.476562 10 10zm0 0"
  />
  <path fill="#c2c2c2"
    d="m183.007812 249c0 5.523438-4.476562 10-10 10-5.523437 0-10-4.476562-10-10s4.476563-10 10-10c5.523438 0 10 4.476562 10 10zm0 0"
  />
  <path fill="#c2c2c2"
    d="m252.011719 248c0 5.523438-4.476563 10-10 10-5.523438 0-10-4.476562-10-10s4.476562-10 10-10c5.523437 0 10 4.476562 10 10zm0 0"
  />
  <path fill="#c2c2c2"
    d="m353.015625 237c0 5.523438-4.476563 10-10 10s-10-4.476562-10-10 4.476563-10 10-10 10 4.476562 10 10zm0 0"
  />
  <path fill="#c2c2c2"
    d="m444.019531 216c0 5.523438-4.476562 10-10 10-5.523437 0-10-4.476562-10-10s4.476563-10 10-10c5.523438 0 10 4.476562 10 10zm0 0"
  />
  <path fill="#c2c2c2"
    d="m383.015625 177c0 5.523438-4.476563 10-10 10-5.519531 0-10-4.476562-10-10s4.480469-10 10-10c5.523437 0 10 4.476562 10 10zm0 0"
  />
  <path fill="#c2c2c2"
    d="m455.019531 156c0 5.523438-4.476562 10-10 10-5.523437 0-10-4.476562-10-10s4.476563-10 10-10c5.523438 0 10 4.476562 10 10zm0 0"
  />
  <path fill="#c2c2c2"
    d="m173.007812 136c0 5.523438-4.476562 10-10 10-5.523437 0-10-4.476562-10-10s4.476563-10 10-10c5.523438 0 10 4.476562 10 10zm0 0"
  />
  <path fill="#c2c2c2"
    d="m244.011719 117c0 5.523438-4.476563 10-10 10-5.523438 0-10-4.476562-10-10s4.476562-10 10-10c5.523437 0 10 4.476562 10 10zm0 0"
  />
  <path fill="#c2c2c2"
    d="m325.015625 128c0 5.523438-4.480469 10-10 10-5.523437 0-10-4.476562-10-10s4.476563-10 10-10c5.519531 0 10 4.476562 10 10zm0 0"
  />
  <path fill="#c2c2c2"
    d="m292.011719 188c0 5.523438-4.476563 10-10 10-5.523438 0-10-4.476562-10-10s4.476562-10 10-10c5.523437 0 10 4.476562 10 10zm0 0"
  />
</svg>
