<?xml version="1.0" encoding="iso-8859-1"?>
<!-- Generator: Adobe Illustrator 18.0.0, SVG Export Plug-In . SVG Version: 6.00 Build 0)  -->
<!DOCTYPE svg PUBLIC "-//W3C//DTD SVG 1.1//EN" "http://www.w3.org/Graphics/SVG/1.1/DTD/svg11.dtd">
<svg version="1.1" id="Capa_1" xmlns="http://www.w3.org/2000/svg" xmlns:xlink="http://www.w3.org/1999/xlink" x="0px" y="0px"
	 viewBox="0 0 280.127 280.127" style="enable-background:new 0 0 280.127 280.127;" fill="#c2c2c2"  xml:space="preserve">
<g>
	<path fill="#c2c2c2"  d="M222.025,72.201c-13.287-7.447-28.953-11.379-45.377-11.379c-28.146,0-52.861,11.782-66.645,29.414
		c-8.105-2.673-16.896-4.153-26.09-4.153c-22.6,0-43.432,8.681-57.32,23.851C9.68,121.656,0,139.086,0,157.893
		c0,33.862,31.791,61.412,70.867,61.412c18.006,0,35.098-5.824,48.248-16.42c7.398-3.495,13.892-7.993,19.316-13.232
		c15.227,11.888,35.633,18.926,57.611,18.926c46.363,0,84.084-31.352,84.084-69.889C280.127,108.164,256.82,81.552,222.025,72.201z
		 M127.545,179.295c-4.348,4.104-9.584,7.633-15.563,10.365c-0.602,0.274-1.164,0.628-1.672,1.05
		c-10.564,8.766-24.572,13.594-39.443,13.594c-30.807,0-55.867-20.82-55.867-46.412c0-14.022,7.565-27.163,20.754-36.052
		c0.52-0.351,0.994-0.766,1.41-1.234c10.879-12.226,28.355-19.525,46.75-19.525c6.396,0,12.547,0.867,18.305,2.444
		c4.949,1.356,9.609,3.236,13.863,5.576c15.439,8.495,25.621,22.918,25.621,39.25c0,6.551-1.678,12.913-4.77,18.743
		C134.586,171.521,131.42,175.637,127.545,179.295z M196.043,193.579c-18.494,0-35.564-5.771-48.139-15.497
		c5.678-8.957,8.799-19.131,8.799-29.729c0-21.614-12.945-40.684-32.545-51.854c11.365-12.463,30.65-20.678,52.49-20.678
		c14.166,0,27.572,3.416,38.771,9.879c0.588,0.339,1.221,0.597,1.877,0.767c28.609,7.374,47.83,28.361,47.83,52.223
		C265.127,168.956,234.135,193.579,196.043,193.579z"/>
	<path fill="#c2c2c2"  d="M75.648,168.939c-4.988,0-9.047,3.452-9.047,7.694c0,4.244,4.059,7.695,9.047,7.695c4.99,0,9.051-3.452,9.051-7.695
		C84.699,172.391,80.639,168.939,75.648,168.939z"/>
	<path fill="#c2c2c2"  d="M42.236,153.251c-5.275,0-9.406,3.38-9.406,7.694c0,4.316,4.131,7.695,9.406,7.695c5.273,0,9.406-3.38,9.406-7.695
		C51.643,156.63,47.51,153.251,42.236,153.251z"/>
	<path fill="#c2c2c2"  d="M77.59,147.958c0-4.244-3.938-7.696-8.775-7.696c-4.84,0-8.775,3.452-8.775,7.696c0,4.242,3.936,7.694,8.775,7.694
		C73.652,155.653,77.59,152.201,77.59,147.958z"/>
	<path fill="#c2c2c2"  d="M204.348,153.345c-1.32,0-2.646,0.212-3.945,0.631c-5.643,1.822-9.012,7.096-7.508,11.756
		c1.131,3.511,4.672,5.778,9.019,5.778c1.322,0,2.648-0.212,3.945-0.631c5.645-1.821,9.014-7.095,7.51-11.755
		C212.236,155.614,208.695,153.345,204.348,153.345z"/>
	<path fill="#c2c2c2"  d="M235.791,132.228c-2.148,0-4.328,0.801-6.135,2.255c-1.793,1.441-3.041,3.377-3.514,5.455
		c-0.512,2.257-0.041,4.501,1.291,6.158c1.32,1.643,3.393,2.585,5.682,2.585c2.148,0,4.328-0.801,6.139-2.256
		c3.869-3.11,4.865-8.32,2.221-11.611C240.154,133.17,238.082,132.228,235.791,132.228z"/>
	<path fill="#c2c2c2"  d="M210.006,112.46c-1.918,0-3.947,0.49-5.871,1.418c-2.313,1.115-4.238,2.759-5.424,4.632
		c-1.396,2.207-1.654,4.597-0.709,6.556c1.082,2.246,3.586,3.588,6.701,3.588c1.916,0,3.947-0.49,5.869-1.418
		c2.314-1.114,4.24-2.76,5.426-4.633c1.395-2.207,1.654-4.597,0.709-6.557C215.623,113.8,213.117,112.46,210.006,112.46z"/>
</g>
<g>
</g>
<g>
</g>
<g>
</g>
<g>
</g>
<g>
</g>
<g>
</g>
<g>
</g>
<g>
</g>
<g>
</g>
<g>
</g>
<g>
</g>
<g>
</g>
<g>
</g>
<g>
</g>
<g>
</g>
</svg>
