<?xml version="1.0" encoding="iso-8859-1"?>
<!-- Generator: Adobe Illustrator 19.0.0, SVG Export Plug-In . SVG Version: 6.00 Build 0)  -->
<svg version="1.1" id="Capa_1" xmlns="http://www.w3.org/2000/svg" xmlns:xlink="http://www.w3.org/1999/xlink" x="0px" y="0px"
	 viewBox="0 0 394.013 394.013" style="enable-background:new 0 0 394.013 394.013;" fill="#c2c2c2"  xml:space="preserve">
<g>
	<g>
		<path fill="#c2c2c2"  d="M358.978,151.613c-0.423-0.979-1.02-1.873-1.76-2.64c-9.311-14.756-21.468-27.511-35.76-37.52
			c-18.41-15.11-38.297-28.323-59.36-39.44c-31.977-45.616-84.375-72.548-140.08-72c-11.26-0.147-22.502,0.953-33.52,3.28
			c-0.841,0.205-1.649,0.529-2.4,0.96c-104,61.28-70.32,141.6-34.56,226.72c6.48,15.44,13.2,31.36,19.2,47.44
			c24.48,65.84,92.32,115.6,157.76,115.6c50,0,93.04-28.16,121.2-79.2C391.698,238.653,378.978,184.813,358.978,151.613z
			 M334.018,306.013c-32,57.76-74.88,69.84-105.36,69.84c-58.24,0-118.72-44.64-140.72-104c-6.08-16.4-12.88-32.56-19.44-48
			l-2.16-5.2c3.52-10.48,16.72-46.4,36.08-61.92c3.91-3.137,4.537-8.85,1.4-12.76c-3.137-3.91-8.85-4.537-12.76-1.4
			c-16,12.64-27.6,34.88-34.8,51.68c-16-40.64-27.12-76.8-18.24-109.12c9.36-8,56-44.8,92.72-30.48
			c4.661,1.812,9.909-0.499,11.72-5.16c1.812-4.661-0.499-9.909-5.16-11.72c-27.6-10.64-57.2-0.48-79.28,11.68
			c10.602-11.269,22.847-20.871,36.32-28.48c9.227-1.765,18.606-2.622,28-2.56c50.604-0.939,98.24,23.813,126.56,65.76
			c0.901,1.271,2.113,2.29,3.52,2.96c20.761,10.702,40.314,23.603,58.32,38.48l0.72,0.48c-24.587-8.508-51.597-6.481-74.64,5.6
			c-4.418,2.474-5.994,8.062-3.52,12.48c2.474,4.418,8.062,5.994,12.48,3.52c40.4-22.96,91.12,8.72,98.8,13.84
			C361.538,190.253,371.778,237.533,334.018,306.013z"/>
	</g>
</g>
<g>
	<g>
		<g>
			<path fill="#c2c2c2"  d="M301.458,250.013c0.087-0.002,0.174,0.003,0.262,0.002c0.019,0,0.039-0.002,0.058-0.002H301.458z"/>
			<path fill="#c2c2c2"  d="M307.785,250.648c-1.99-0.448-4.026-0.656-6.066-0.633c-6.209,0.021-12.257,1.976-17.302,5.598
				c-12.95,8.562-16.528,25.988-8,38.96c5.066,7.038,13.249,11.159,21.92,11.04c14.06-0.103,26.193-9.883,29.28-23.6
				C330.802,267.875,321.923,253.833,307.785,250.648z M310.178,278.173v0.08c-0.647,2.829-2.332,5.312-4.72,6.96
				c-2.001,1.451-4.408,2.235-6.88,2.24c-2.818,0.097-5.505-1.187-7.2-3.44c-2.699-4.739-1.139-10.765,3.52-13.6
				c2.001-1.451,4.408-2.235,6.88-2.24c2.82-0.11,5.514,1.176,7.2,3.44C310.314,273.521,310.752,275.916,310.178,278.173z"/>
		</g>
	</g>
</g>
<g>
	<g>
		<path fill="#c2c2c2"  d="M179.859,286.325c-2.175-0.513-4.406-0.752-6.641-0.712c-6.35,0.026-12.533,2.041-17.68,5.76
			c-13.236,8.741-16.879,26.557-8.138,39.792c0.046,0.069,0.092,0.139,0.138,0.208c5.201,7.207,13.594,11.418,22.48,11.28
			c14.316-0.093,26.68-10.037,29.84-24C203.262,304.203,194.308,289.73,179.859,286.325z M182.338,314.573l-0.08,0.08
			c-0.667,2.991-2.438,5.619-4.96,7.36c-4.548,3.522-11.046,2.928-14.88-1.36c-3.006-5.018-1.398-11.521,3.6-14.56
			c2.1-1.504,4.617-2.315,7.2-2.32c3.116-0.197,6.122,1.186,8,3.68C182.571,309.565,182.978,312.148,182.338,314.573z"/>
	</g>
</g>
<g>
	<g>
		<path fill="#c2c2c2"  d="M195.79,57.772c-2.366-0.529-4.788-0.771-7.213-0.719c-7.179,0.025-14.17,2.291-20,6.48
			c-14.785,9.682-18.921,29.517-9.239,44.302c0.092,0.14,0.185,0.28,0.279,0.418c5.813,8.055,15.187,12.772,25.12,12.64
			c16.195-0.152,30.166-11.408,33.76-27.2h0.08C222.205,77.481,212.002,61.399,195.79,57.772z M200.898,89.933h-0.08
			c-0.887,3.939-3.23,7.397-6.56,9.68c-6.109,4.707-14.822,3.867-19.92-1.92c-4.01-6.68-1.906-15.342,4.72-19.44
			c2.77-2.008,6.099-3.098,9.52-3.12c4.083-0.123,7.967,1.759,10.4,5.04C200.98,83.004,201.679,86.555,200.898,89.933z"/>
	</g>
</g>
<g>
	<g>
		<path fill="#c2c2c2"  d="M303.947,178.737c-0.003-0.001-0.006-0.003-0.009-0.004c-25.68-9.765-54.16-9.105-79.36,1.84
			c-4.595,1.952-6.738,7.26-4.785,11.855c1.427,3.36,4.735,5.531,8.385,5.505c1.236,0.004,2.461-0.241,3.6-0.72
			c20.593-8.773,43.743-9.43,64.8-1.84c4.56,2.033,9.905-0.016,11.937-4.576c0.021-0.048,0.042-0.096,0.063-0.144
			C310.59,186.084,308.516,180.749,303.947,178.737z"/>
	</g>
</g>
<g>
	<g>
		<path fill="#c2c2c2"  d="M168.698,216.533c-0.729-4.948-5.332-8.369-10.28-7.64c-1.12,0-27.76,4.16-41.36,22.4
			c-6.645,8.911-9.283,20.186-7.28,31.12c0.527,4.552,4.377,7.99,8.96,8h1.36c4.966-0.52,8.569-4.967,8.049-9.933
			c-0.014-0.129-0.03-0.259-0.049-0.387c-4.32-27.44,31.44-33.04,32.96-33.28C166.006,226.084,169.427,221.481,168.698,216.533z"/>
	</g>
</g>
<g>
	<g>
		<path fill="#c2c2c2"  d="M259.058,329.133l0.32-0.24c-1.2,0-30.24-6-48.96,13.36c-3.49,3.601-3.401,9.35,0.2,12.84s9.35,3.401,12.84-0.2
			c11.6-12,32-8,32-8c4.904,0.994,9.686-2.176,10.68-7.08C267.132,334.909,263.962,330.127,259.058,329.133z"/>
	</g>
</g>
<g>
	<g>
		<path fill="#c2c2c2"  d="M131.046,70.992c-2.639-2.769-6.735-3.578-10.229-2.019c-1.36,0.88-33.12,22-24,53.44c1.11,3.892,4.672,6.572,8.72,6.56
			c0.823,0.117,1.657,0.117,2.48,0c4.832-1.257,7.73-6.192,6.474-11.024c-0.086-0.331-0.191-0.657-0.314-0.976
			c-5.36-18.4,16-33.04,16.56-33.2C134.352,80.329,134.491,74.607,131.046,70.992z"/>
	</g>
</g>
<g>
</g>
<g>
</g>
<g>
</g>
<g>
</g>
<g>
</g>
<g>
</g>
<g>
</g>
<g>
</g>
<g>
</g>
<g>
</g>
<g>
</g>
<g>
</g>
<g>
</g>
<g>
</g>
<g>
</g>
</svg>
